PathFileType	4	(X/Y/Z)	C:/Users/beibeiliu/ov580/test_trc/capture2\sequence.2_training_dense_right.trc
DataRate	CameraRate	NumFrames	NumMarkers	Units	OrigDataRate	OrigDataStartFrame	OrigNumFrames
120	120	12	19	mm	120	196	313
Frame#	Time	ThumbCMC			ThumbMCP			ThumbIP			ThumbTip			IndexMCP			IndexPIP			IndexTip			MiddleMCP			MiddlePIP			MiddleTip			RingMCP			RingPIP			RingTip			PinkyMCP			PinkyPIP			PinkyTip			BackHand1			BackHand2			BackHand3	
		X0	Y0	Z0	X1	Y1	Z1	X2	Y2	Z2	X3	Y3	Z3	X4	Y4	Z4	X5	Y5	Z5	X6	Y6	Z6	X7	Y7	Z7	X8	Y8	Z8	X9	Y9	Z9	X10	Y10	Z10	X11	Y11	Z11	X12	Y12	Z12	X13	Y13	Z13	X14	Y14	Z14	X15	Y15	Z15	X16	Y16	Z16	X17	Y17	Z17	X18	Y18	Z18	
195	1.625	114.708	-43.2955	-5.84909	101.217	-66.8291	-25.3753	92.0489	-76.6165	-46.1728	96.962	-72.6441	-72.2291	76.7985	-30.6051	-67.8499	73.6452	-56.2778	-82.7732	96.8706	-71.2302	-60.4105	88.1605	-27.7665	-82.4389	92.8809	-56.6417	-95.2131	116.91	-69.9054	-73.2436	111.635	-25.8373	-92.5173	113.104	-53.4994	-100.142	127.573	-67.0678	-71.2106	129.572	-22.8197	-92.2671	131.538	-50.6541	-100.054	134.557	-63.4342	-68.038	135.09	-2.3593	-44.0454	153.38	0.570336	-22.1392	120.99	-8.61507	-16.9421	
196	1.63333	115.318	-46.0233	-3.11291	100.72	-68.3985	-23.8447	91.6581	-77.2639	-45.5946	92.626	-76.015	-72.0759	72.6236	-31.4187	-65.0684	72.0603	-56.0993	-80.6688	95.0655	-72.3306	-61.5548	86.5658	-28.9592	-82.0881	91.8798	-57.5191	-94.307	115.982	-69.684	-66.6904	105.672	-25.1984	-88.0896	111.427	-54.5235	-99.486	127.54	-66.8476	-71.825	125.859	-22.9334	-87.62	127.57	-52.9662	-96.336	138.156	-65.8685	-71.2714	134.218	1.3428	-47.5057	154.498	0.0876981	-19.4498	119.468	-10.0337	-16.533	
197	1.64167	116.371	-47.6984	-0.597944	98.413	-71.1439	-22.5219	87.9769	-79.492	-45.2764	93.6753	-76.8471	-68.0595	73.5827	-31.5475	-60.8906	72.1131	-57.4686	-79.4489	95.5513	-70.4647	-64.8867	85.7316	-27.372	-75.2162	86.8759	-54.7655	-92.7342	115.17	-69.2676	-66.0076	103.46	-26.0254	-85.0061	109.831	-55.3002	-96.9786	122.424	-68.389	-71.4084	128.113	-20.6451	-88.338	124.867	-52.3246	-95.37	132.949	-63.1804	-69.6618	132.004	-2.5499	-44.6646	151.272	-2.59569	-15.216	115.746	-10.9887	-11.8689	
198	1.65	116.093	-47.8026	0.0576514	102.126	-70.8492	-16.5906	88.3207	-80.3876	-41.8752	90.024	-78.7044	-70.7506	72.312	-30.7054	-55.7382	70.2364	-55.1922	-78.825	92.243	-74.5651	-60.4022	87.3664	-27.1109	-77.8403	85.2968	-58.1725	-89.1228	110.716	-72.5129	-65.9531	105.471	-25.6771	-84.4696	106.263	-56.7794	-94.9378	119.482	-69.0704	-71.075	124.537	-22.9909	-87.0023	124.204	-53.4462	-94.5347	133.822	-66.7265	-70.5865	133.483	-3.6463	-41.1047	147.527	-2.00649	-17.4143	119.546	-11.9422	-11.8216	
199	1.65833	113.087	-49.1714	-0.986014	96.7018	-74.1121	-18.3414	87.3578	-80.1603	-42.8062	91.4547	-78.3898	-66.4045	72.1004	-31.3088	-58.7732	63.3694	-53.3209	-75.5555	87.9852	-74.35	-66.0491	83.8562	-28.6427	-75.3214	82.7763	-56.319	-88.2032	111.749	-71.6378	-65.7438	103.75	-26.6361	-83.1099	101.925	-56.583	-92.3369	121.897	-70.0372	-67.7431	125.795	-23.2707	-84.3946	121.006	-54.6693	-93.5878	130.75	-68.2797	-68.2518	132.666	-3.93406	-43.2405	151.003	-4.39582	-14.6318	115.069	-13.5101	-7.37411	
200	1.66667	115.177	-50.8464	2.34693	100.511	-73.6559	-13.351	86.2292	-80.5674	-40.6225	90.4011	-77.1194	-65.2782	70.6393	-31.2565	-52.4698	63.4312	-52.4751	-75.9571	84.7275	-75.5589	-69.4377	83.6019	-28.9414	-74.2389	83.9762	-55.3197	-89.0301	110.537	-73.264	-68.3496	102.334	-25.254	-82.64	104.539	-55.2561	-93.53	123.399	-69.5013	-67.5679	124.379	-22.0697	-84.4319	118.787	-53.2948	-91.7734	131.214	-69.3615	-68.0622	128.683	-4.41193	-36.8366	153.562	-3.89881	-13.2086	117.043	-13.8638	-8.397	
201	1.675	115.396	-50.907	6.60386	95.1883	-70.0123	-15.1978	84.0335	-74.1614	-36.839	89.5661	-67.477	-64.6909	70.6854	-30.0729	-50.9466	63.7692	-49.6399	-77.2851	81.9903	-75.2689	-73.8625	84.4106	-26.4739	-72.3956	80.2984	-55.1505	-86.7673	109.886	-74.7389	-67.7943	103.841	-21.7819	-80.3133	104.264	-49.7066	-95.7244	118.622	-68.7664	-69.3965	123.513	-20.1029	-81.263	119.815	-47.794	-94.695	131.787	-66.1942	-69.0114	132.136	-2.29609	-38.6722	148.235	-3.29145	-12.0369	116.848	-16.9362	-3.80163	
202	1.68333	113.734	-48.8966	2.53698	95.8348	-64.9086	-16.6126	80.7351	-64.689	-42.652	91.5101	-53.4997	-65.4797	67.26	-27.4081	-53.8032	64.3468	-46.2829	-77.9097	84.4277	-71.9901	-76.3246	82.502	-23.0553	-67.7478	82.5027	-49.5142	-90.0424	103.735	-71.9098	-73.5318	98.8638	-19.1569	-78.8744	102.752	-47.3227	-94.2255	118.799	-64.5335	-73.1824	121.927	-15.7523	-82.4451	117.062	-43.5233	-92.8036	132.377	-64.0451	-71.4955	131.243	1.55411	-33.3799	150.07	-2.10619	-13.2622	116.363	-14.0626	-4.79005	
203	1.69167	109.34	-47.1091	2.28693	92.2702	-60.2286	-19.2734	81.9107	-54.6006	-46.3752	89.5467	-43.0065	-70.0726	68.5133	-21.7218	-55.9651	62.8136	-39.7712	-78.7727	83.3574	-69.2689	-75.1906	81.8736	-15.8915	-72.9536	81.9174	-40.7094	-90.9815	106.264	-65.3864	-76.9598	102.278	-11.3976	-80.4156	102.098	-41.3714	-94.739	120.286	-59.0053	-72.6945	119.148	-11.0831	-82.0135	117.207	-38.1556	-91.7993	129.294	-58.1961	-74.2023	130.081	4.60089	-32.6979	153.127	1.39347	-8.82015	113.416	-9.25178	-4.30118	
204	1.7	113.029	-43.7117	1.04056	94.9411	-51.3892	-24.1936	80.6609	-46.0252	-48.7813	88.2865	-33.9736	-70.5319	71.7856	-11.1836	-58.4571	65.1964	-31.5159	-80.7923	87.2683	-58.8571	-77.8108	85.8415	-5.33869	-72.9291	85.2527	-28.2847	-94.2471	102.067	-58.0963	-79.8074	101.317	-3.30648	-80.8824	105.362	-30.8782	-97.4159	115.921	-52.4241	-74.4295	123.15	-2.22147	-79.0416	121.726	-28.5908	-95.3328	127.876	-50.9405	-76.4069	132.797	7.31366	-31.2059	150.495	3.58475	-8.43306	115.491	-6.48809	-3.35447	
205	1.70833	111.538	-37.1818	-1.79577	92.0294	-45.7146	-24.7794	81.4315	-35.921	-49.9403	90.5353	-19.9119	-70.9353	74.1138	-0.941825	-58.0942	67.7038	-19.3143	-81.8675	82.7333	-44.1832	-82.3389	90.6808	6.93218	-68.7925	85.6997	-12.9858	-93.8536	104.175	-46.6391	-81.771	106.863	9.80431	-80.519	103.27	-14.6855	-96.8298	113.49	-40.7356	-78.8122	127.19	6.79786	-74.3629	120.64	-15.5631	-95.1573	126.199	-42.8967	-77.178	136.725	16.7179	-30.0462	151.138	6.33311	-2.75482	117.47	1.30997	-2.89765	
206	1.71667	110.017	-28.2078	-2.54682	92.7443	-32.8157	-29.8664	80.9258	-22.1153	-54.6692	89.3763	-6.81412	-73.5654	77.9624	13.3939	-56.5694	69.7421	-1.42908	-80.7885	84.5273	-31.3102	-83.4251	93.6013	21.1813	-65.7057	87.9435	4.00193	-94.5317	100.151	-31.8546	-86.2582	112.479	22.6519	-73.948	106.984	-2.29293	-97.4724	117.198	-30.0986	-79.7965	131.001	18.2137	-73.2405	120.365	-3.53714	-93.3526	125.684	-30.0974	-80.5738	136.526	21.9398	-25.3379	154.331	12.4472	-4.72809	120.055	7.61851	-3.07162	
